<?xml version="1.0" encoding="UTF-8"?>
<svg id="OBJECTS" xmlns="http://www.w3.org/2000/svg" viewBox="0 0 661.34 372.71">
  <defs>
    <style>
      .cls-1 {
        fill: #896cb7;
      }

      .cls-2 {
        fill: #fff;
      }

      .cls-3 {
        fill: #353333;
      }

      .cls-4 {
        fill: #5372bc;
      }

      .cls-5 {
        fill: #b1b1b0;
      }

      .cls-6 {
        fill: #629b94;
      }

      .cls-7 {
        fill: #c44949;
      }

      .cls-8 {
        fill: #e2e8e8;
      }

      .cls-9 {
        fill: #afd9dd;
      }

      .cls-10 {
        fill: #e8b158;
      }

      .cls-11 {
        fill: #3d4193;
      }

      .cls-12 {
        fill: #4359a8;
      }
    </style>
  </defs>
  <g>
    <g>
      <path class="cls-9" d="m583.69,326.06c-6.1,2.15-8.37-4.92-5.65,5.13,1.07,4.56,10.22-1.45,5.65-5.13Z"/>
      <path class="cls-9" d="m591.93,290.04c-2.23-2.51-3.7-3.25-4.21-6.05h-1.71c-2.93-4.85-6.9-12.2-10.52-17.61-3.26-14.65-4.15-.59-4.49,4.11-.22,7.49-14.71-.73-8.27-8.37-11.25-1.42-10.45,3.23-14.46,5.96-7.57-5.81-12.5,10.46-17.55,11.18-17.41-.38-9.27,29.82-4.24,33.32,13.4-2.86,27.52-15.9,34.27-.11,6.3-14.09,1.71,6.82,14.07,8.39,1.45-2.05,3.87-1.74,4.87.55,8.65-.3,16.72-25.72,12.23-31.37Z"/>
      <path class="cls-9" d="m582.09,251.12c-1.4-5.73-20.69-16.03-22.22-4.87,2.15,1.58,5.73,1.67,5.93,5.81,2.29,1.31,5.49,6.39,9.65,3.39-3-7.79,7.99,2.94,12.71,3.7,1.02-3.41-8.1-3.5-6.07-8.03Z"/>
      <path class="cls-9" d="m552.4,239.34c1.01,1.35,2.09,3.64,5.99,3.08.06-1.29-5.43-7.28-5.99-3.08Z"/>
      <path class="cls-9" d="m529.21,243.44c1.25,2.97,2.07,11.3,3.25.08,4.59,6.28,2.59,1.19,4.28-4.13-3.33,1.23-3.29.16-6.1-.87-.03,1.42.19,2.92-1.43,4.92Z"/>
      <path class="cls-9" d="m531.7,236.33c-1.4.81,7.12.55,8.88-.68-.74-.61-6.65-1.35-8.88.68Z"/>
      <path class="cls-9" d="m511.25,234.09c-1.13,2.97,2.23,5.01,2.73,9.01,5.27.93,11.86,5,13.66-7.79.47-.02.93-.03,1.4-.05-3.55-5.49-1.18-3.55.43-9.34-3.35-2.11-3.65-4.95-5.69.48-3.97,1.81-8.77,9.38-12.53,7.69Z"/>
      <path class="cls-9" d="m521.32,254.82c.54-.22-.18.98,2.23.34-10.45-8.36-33.96-4.32-2.23-.34Z"/>
      <path class="cls-9" d="m505.41,243.33c-.63.99-15.86-20.78-19.47-16.03,3.46,1.58,19.82,33.1,19.47,16.03Z"/>
      <path class="cls-9" d="m492.65,221.22c4.27,3.09,3.68,11.63,10.07,13.26.86-3.44-14.78-25.45-10.07-13.26Z"/>
      <path class="cls-9" d="m544.11,222.6c.21-8.81-9.6-.91-1.82,3.53-.6-1.27-.67-2.79-.19-4.11.45.62,1.31.86,2.01.58Z"/>
      <path class="cls-9" d="m536.1,222.21c.58-.58,1.27-1.05,2.02-1.36.7-2.46-2.67-.52-2.02,1.36Z"/>
      <path class="cls-9" d="m539.99,211.39l-.04.44c-4.19,1.38,5.23,8.48.04-.44Z"/>
      <path class="cls-9" d="m657.13,73.99c-1.4,0-3.33-1.28-3.33-1.28l-.18,2.75c-10.54-11.34-35.03-17.95-27.19-8.44-1.44.42-5.56-.76-6.66-2.57-24.69,1.46-3.74-6.22-29.46-5.01-7.29-6.43-3.62-3.91-12.82-3.19,3.15-5.25-11.31-4.34-9.46,1.41l-2.1-.55c-1.85,1.17-5.38-.23-7.72,1.28-4.94-4.63-3.63,2.6-8.65-.09-2.29-5.56-7.13-13.81-11.7-7.25-12.08,1.06-20.33-5.99-32.62.55,12.08-6.68,24.98-16.77.88-14.31l1.93-1.31c.17-1.35-4.16-1.97-5.26-1.62,3.77-6.21-8.47,3.82-18.39,5.71-7.73.82-12.7-.28-14.21,7.27-25.79,3.05-1.32,6.78-9.67,9.04l-4.91-2.2c-1.25.26-3.66,1.23-5.09,2.02l2.81,2.02-3.68.18c-2.62-2.42,2.65-5.2-2.1-6.79v2.94c-7.05,5.05,9.67,26.35-10.53,20.55,7.38-1.82,9.7-4.55,6.51-9.76.07-2.43,1.36-6.48-.72-7.85,3.9-12.67-15.21-2.75-6.33,11.6-7.32-1.26-12.46-11.65-16.66-.52-3.32-3.56-13.22,3.47-10.33-1.68-3.73.42-7.1,3.47-10.92,4.68.64,4.77-9.51.56-3.16-.69,1.48-2.17-3.26-3.3-4.34-3.16.34,1.54-.73,4.45.79,6.33-.16,1.64-1.43,2.6-3.03,1.24-12.09,2.85,2.24,8.57-10.39,5.23v1.51c3.61,2.61-2.43,1.63-4.03.35-1.03-2.83-1.45-7.19-5.18-9.7,28.5,10.59,14.51-8.62-4.87-9.22-1.13-14.14-36.01,11.66-34.73,20.36-2.34,3.51-15.84,3.72-8.55,12.52-2.59,8.99,2.86,5.6,8.02,1.51,3.14,1.18,3.79,19.7,8.42,8.26,3.92.45,2.84-6.35,6.97-9.91l-2.89-1.79c3.93-12.77,18.51-30.34,8.25.24,3.52,2.25,14.4-3.57,12.54,2.92-2.08.35-6.27.71-8.55.69l-.39,2.61,1.58,1.93-1.32,2.2c-4.45-5.21-6.09.03-4.89,3.44-.83,1.11-2.26,3.59-3.79,4.4-1.41-2.74-6.09.44-7.23.83-3.4-1.48-4.28-.73-7.65-.2-4.54-2.78,1.32-11.93-4.98-6.13,3.48,6.47-12.94,17.39-18.68,19.12.59,2.52-1.31,2.47-5.13,2.58.42,1.6,2.53,2.76,4.21,3.34,9.69,20.07-19.73-4-11.97,22.98-1.23,1.77,1.59,2.3,3.03,1.79l1.45,2.2c1.31-.42,6.37-2.12,8.29-1.51.85-1.01,2.95-3.43,3.68-4.4-3.2-3.34,3.08-5.74,5.26-7.34-1.73-4.18,2.58-4.47,5.79-3.12,4.74-6.88,19.03,7.9,17.71,12.11l2.28-2.38c-.13-1.56-.25-3.31,1.93-2.02v-.92c-25.13-23.34,1.68-10.85,7.93,9.01,2.18-5.04-.36-12.63,8.38-10.64-1.46,18.96,14.45,5.74,16.47,13.05-2.86,22.05-24.53,2.99-28.24,6.77-3.19,11.28-11.82-1.3-18.95-4.24,4.26-15.39-24.07,1.55-29.09-2.76-1.96,2.31-6.41,5.84-8.07,8.07,1.88,7.95-10.36,12.75-13.28,20.85-2.53,15.83,4.44,40.29,22.04,36.23,5.86,5.36,13.06-4.32,19.12-.13,15.58,7.62,1.34,10.29,14.37,26.97-2.33,32.65,2.24,30.97,9.41,56.27,11.09,7.67,26.25-5.74,27.96-18.2,8.97-3.8.88-8.71,4.22-13.26,11.3-9.86,9.28-7.75,9.28-19.02-13.82-13.61,38.82-49.05,12.24-43.18-15.93-3.18-24.75-34.74-24.15-37.32,4.25-3.29,10,15.81,10.25,15.3,4.83,6.44,5.81,9.31,6.99,16.57,9.14,1.89,28.27-11.01,29.39-19.97-8.91-8.13-3.63-8.64-12.45-2.39-10.07-9.95-12.15-21.97,2.39-6.63,3.37.06,4.81-4.01,6.21,1.86,3.77,1.25,12.35,2.27,17.36,1.1.33,1.45,2.93,4.49,4.56,5.5,1.45,8.16,5.78,2.21,6.9,2.1.54,12.9,7.01,31.19,9.76,29.21,1.44-4.55,5-8.42,3.23-13.57,3.23-6.99,11.37-9.35,14.84-15.35,1.33-.25,4.17-.75,5.61-1.47v-1.47c2.83,3.8,7.57,9.12,6.66,14.68l1.53.73c1.16-.51,3.05-1.54,4.09-2.75.5,4.6,3.77,9.92,2.98,14.79l1.75-2.57c-2.72-11.76,7.89,3.05,9.3,5.45.76-.62,2.05-1.45,2.46-2.88,17.26-7.32-13.52-22.32,5.61-23.96l.88,2.02c13.29-5.81,29.57-16.67,17.36-31.92.49-3.25,4.55-4.58,6.45-5.32-3.02-2.59-6.55,2.13-7.06-1.83-6.65-.74,10.31-12.47,4.91-3.58l1.23.28c.73-.7,4.36-2.53,5.52-.37-.75,2.29-.47,4.43,2.72,4.04-2.79,10.66,5.39,7.35,4.96,4.12.29-5.95-6.13-6.53.12-11.48,26.97-17.36,24.05-40.1,16.33-33.36l-2.63-.37-.44-2.29-2.37-.73c21.59-22.25,12.33-7.51,27.62-14.58,1.32.7,3.39,1.63,4.74,2.94l2.98-1.65.88-2.94c2.49-2.3,10.07-9.69,9.3-1.1l4.74-2.2c2.26-7.58,2.94-2.45,2.73,1.47-3.8.82-7.93,5.02-9.57,8.26-8.02.87-5.07,15.62-4.39,20,5.36-3.57,8.85-10.45,12.28-16.14-5.3-5.9,7.81-15.3,13.15-8.99,16.7-15.16,18.32-3.01,15.26-13.02-10.87-5.75,4.6.33,3.16-6.79,2.09-1.96,2.57-.44,3.51,1.47,3.18-.96,9.97,7.7,10.21-.18.72,1.24,3.61-.49,4.7-1.28,0,0-2.81-2.94-4.21-2.94Z"/>
      <path class="cls-9" d="m300.44,111.87h1.97c.93.9,1.72,1.84,1.71,3.71l-1.84.69c-.35,1.05-1.09,2.75-1.84,3.99l2.5.41.53.69c-1.4.24-2.8,1.41-3.68,3.03,3.58-1.97,8.56-.75,11.97-2.2l-.92-1.24,1.84-2.61-2.37-1.93c-.06-1.94-1.61-4.61-3.68-5.5l-.66-1.93-1.45-.96c.3-1.24.68-2.53,1.97-3.71-.73-.62-2.38-1.24-3.81-1.65l1.05-2.34-1.97-.55-2.5,3.44c-.01,3.28-.37,2.21,1.71,6.19l-.53,2.48Z"/>
      <path class="cls-9" d="m296.89,118.75c1.85-1.65.52-4.68,2.37-6.67l-2.37-1.44-2.24.83-.26,1.31-2.76.62v1.38l1.05,1.38c-.69,1.08-1.26,2.18-1.05,3.99,1.4.3,3.82-.33,5.26-1.38Z"/>
      <path class="cls-9" d="m283.6,79.12c-.35-1.12-2.42-2.77-3.68-3.58-2.59,1.46-6.81,1.14-9.6,2.61-.46-.88-.98-2.22-2.37-2.61l.26,1.51c-5.08-2.28,5.87,16.49,15.39,2.06Z"/>
      <path class="cls-9" d="m515.02,196.45c-.52-1.46-3.74-.29-4.72,1.47.76,3.71,3.22.57,4.72-1.47Z"/>
      <path class="cls-9" d="m532.98,190.87c.79-.78,3.01-4.85,1.73-6.46-2.29.92-3.67,3.45-1.73,6.46Z"/>
      <path class="cls-9" d="m549.36,167.06l-.23-.33c3.47,10.58,7.58-4.95.23.33Z"/>
      <path class="cls-9" d="m563.36,158.17c-.81,3.94-9.72,2.27-10.77,6.55,3.02.22,3.9-1.85,7.9-1.34-.09.7-.18,1.39-.28,2.09,1.99-1.8,4.76-2.61,8.81-3.34-.36-4.35,7.1-11.03.41-14.44.14,4.32-2.35,8.62-6.08,10.49Z"/>
      <path class="cls-9" d="m569.99,142.46c-3.55,4.93,6.6,2.75,8.24-.56-5.66,0-3-7.78-8.24.56Z"/>
      <path class="cls-9" d="m572.26,133.84c3.04.75-.72-3.94,4.54-7.35-4.7-19.78-4.19-4.65-4.54,7.35Z"/>
      <path class="cls-9" d="m406.4,56.33c6.94,3.84,7.64,8.23,6.85-5.07-.49-3.23-10.51,3.44-6.85,5.07Z"/>
      <path class="cls-9" d="m415.23,49.71c.1-8.28,22.65-8.86,21.13-14.92-3.51.37-36.62,11.06-21.13,14.92Z"/>
      <path class="cls-9" d="m332.2,27.74c.35,1.2,2.97,4.65,3.64.64.76-.27,1.58-.35,2.37-.23,1.1,2.52-7.6,3.78,2.1,8.03,1.72-1.05,5.66-12.51,8.36-5.77-1.72,5.9,16.66,2.71-9.44-8.44.35,1.3.7,2.61,1.05,3.91-1.16.84-3.42-6.3-3.93-1.46-3.29-2.58-10.91-2.62-4.15,3.33Z"/>
      <path class="cls-9" d="m346.86,22.33c.41.42.24-1.19,2.25.64-.66-.03-1.33.08-1.95.32,8.93,4.98,20.33-7.19,2.89-1.98-1.71-3.17-10.37,1.24-3.19,1.02Z"/>
      <path class="cls-9" d="m401.41,263.53c-1.3-3.49-4.03,7.53-9.74,9.01,2.91,4.88-8.77,21.84,4.89,17.29,1.26-5.85,4.03-12.28,5.27-19.59,1.94-.7,1.47-2.57-.41-6.71Z"/>
      <path class="cls-9" d="m460.26,220.42c-2.08-7.8-4.86,4.14-.88,4.69,1.41-.27,2.91-2.69.88-4.69Z"/>
      <path class="cls-9" d="m241.64,247.98c-3.59-4.34-8.9-6.59-14.29-5.23-1.69-4.23-7.52-3.95-11.4-4.95l-.26,2.84-1.14-.37c.4-2.35,3.36-16.43-11.05-15.5-1.41-1.95-4.44-5.22-7.1-5.45l-1.05-2.62c-2.13-1.29-9.12-1.34-12.1-1.1-.7-.93-2.1-2.09-3.55-2.48l-2.1,1.79v2.89l-1.58-1.51c2.27-8.22-1.63-.82-6.18-1.38-.4.75-2.45,4.7-3.29,5.92,0-.54-2.21-2.82-2.76-3.44-3.69,2.61-7.07.3-9.21-2.48.2-1.24-.24-6.14.53-7.7l-1.97-2.48c-1.82-.27-5.69-1.04-7.63,0,3.29-13.56,5-12.57-2.63-12.38-10.7,24.79-26.75-23.44.66-17.47l-.66-1.1c1.62-.8,5.38-.95,7.37-.83,1.08,2.24,2.63,1.57,4.08,0,8.04,18.77,4.56,7.17,5.92-4.82,14.35-9.54,3.74-12.19,8-15l1.34,2.61c.43-1.82,3.09-5.26,3.68-7.7,3.36.73,6.49-1.65,5.52-5.5,2.32-2.58,7.24-4.37,10.79-5.78-.94.73-2.19,2.21-2.76,3.71l1.71,1.51,1.97-2.48c1.42-.12,4.07-1.08,5.66-1.93v-1.93c-1.5.16-3.6-.1-5.26-.96l-1.45-3.16,1.18-3.44-2.5-1.38c-3.72.79-7.07,3.91-9.6,6.74-1.31-4.06,5.02-7.12,6.97-9.08,22.39-.69,26.51-5.4,8.68-18.43-3.14-13.71-4.92-8.77-8.68-4.68-6.02-1.64-4.06-2.98-4.97-7.55-7.76-6.48-11.74-3.55-14.76-4.7-.4,3.03.51,8.12-1.71,11.28l3.68,3.03v4.54c-1.06.97-3.95,3.78-4.99,4.54l1.18,6.88c-1.98,5.03-5.14-1.9-6.97-3.58l.26-4.95c-9.37-1.11-16.37-5.07-22.76-11.14-2.48-13.28,16.96-16.78,14.86-24.08,4.39-.61,7.38,1.02,9.6-3.99-.9-.68-1.82-2.06-1.97-3.58,1-7.87-5.61-3.9-8.29,3.99-6.43-12.63-5.68,1.31-7.63-6.47-4.83-.89-6.82,4.98-13.42,5.5-11.69,2.03-13.56-5.97-17.36-.14l1.05,2.61-.66.96c-4.41-5.78-10.5-2.33-14.34-3.58v-1.79l1.84-1.1c-6.33-1.39-15.85-6.09-18.68-2.89-.24-.74-.65-1.71-1.45-2.75l-1.18,2.2c-4.49-6.23-12.13.58-18.21,2.25-14.91-5.87-28.6-4.59-37.96-8.99-20.53,7.01-9.55,10.23-17.89,8.67l-1.18,1.24c1.78,2.22,5.78,6.44,8.42,5.37l3.16,1.78c-3.38,4.58-11.54-3.37-13.15,3.86.72.55,2.14,1.9,3.16,3.03,7.57.23,9.39-3.49,8.68,3.58-1.7,1.19-6.66-.78-7.1,2.61-.55-.21-2.45,3.09-2.24,3.99.8-.07,2.57.92,1.84,2.61,1.48,2.82,3.4,1.09,4.6,0,.56,7.62,4.78,5.11,9.47,4.82l.13,2.34c-3.07,5.13-9.19,6.05-11.84,9.91,19.87-7.41,16.33-15.09,23.02-19.67h2.5c-1.86.53-2.92,3.25-3.81,5.23.99,3.11,4.55-.82,6.31-2.2v-2.06c14.58,2.81,36.48,12.67,38.37,30.36,11.83,9.18,5.04,18.97,7.03,27.5,3.62,10.75,14.15,16.59,18.05,27.71-5.07.46,4.88,3.34,3.6,6.51.95,1.17,3.05,3.1,4.65,3.85l.18-1.19c-3.29-5.43-11.57-16.37-8.94-17.7,13.98,13.67,18.85,36.92,38.55,34.62,4.49,7.47,13.42,3.87,14.68,12.34,4.07,3.15,8.16,6.01,13.42,4.63,6.01,6.74-3.62,14.3-4.34,20.78l1.97.14c-.93,1.86-3.6,4.53-2.89,7.29,4.86,3.98,7.25,12.46,9.6,18.3,24.18,8.54-.31,56.2,3.68,64.11.54-.77,1.29-1.96,1.71-3.58.93,2.98-.57,7.71-1.18,10.87l-2.76.83-.72,1.51h2.3l.53,1.79c-5.95,9.67,6.77,23.38,16.31,20.27-4.49-2.32-7.22-7-7.37-11.56,1.82-2.47,3.11-6.09,5.96-8.07v-1.83c-3.66.35,1.77-18.47,6.49-15.57l.7-4.79c2.33-.54,11.57-1.5,9.12-6.24l.47-2.38-2.4-2.02c9.39,5.52,19.28-15.79,18.24-20.2,1.71-3.19,6.5-3.19,8.24-6.21h2.98c9.12-8.56,4.62-17.59,6.14-19.81,2.85-4.02,13.38-13.65,4.56-17.15Zm-112.26-49.15l1.96,1.11c-.37-.06-1.24-.48-1.96-1.11Zm75.42,57.11v-.03s0,0,0,0v.02Z"/>
      <path class="cls-9" d="m204.24,122.89c-1.77,2.18-3.22,3.87-4.51,8.08,3.35-1.15,14.51,3.42,10.97-1.75.97-3.4-6.69-.88-4.46-7.74-.84-.02-1.48.73-2,1.41Z"/>
      <path class="cls-9" d="m77.57,55.46c.98-.15,4.48,5.25,5.47,1.72,28.86-11.52-6.47-17.92-5.47-1.72Z"/>
      <path class="cls-9" d="m92.42,57.31c-3.28,4.76,4.98.79,9.23,4.75-25.71.19,12.95,7.25,17.32,2.63,5.28-.64-5.37-13.14-9-14.23.11,1.04,4.23,10.45-2.75,1.81-5.22,3.65-3.72-1.59-8.71.42-.24-.56-.32-1.18-.24-1.78-3.13-.59-16.81,5.69-5.84,6.4Z"/>
      <path class="cls-9" d="m146.65,59.05c-8.42,3.04,14.24,3.08,17.69,2.9,2.89,3.08,9.92,5.14,11.25,9.85-1.89,2.23-4.38,3.17-2.24,6.73-4.27.24-14.09,3.89-.5,3.05,3.11,3.46,21.4,15.27,11.24,3.62,13.49,3.51-.58-5.49,1.57-9.39,7.78,7.67,13.85-.51-2.55-9.12,9.19-.21-19.64-21.02-22.59-17.82.08,3.1,9.67,8.23-1.16,5.72.39-6-7.36-10.18-6.93,4.4-2.71-1.95-4.21-7.07-.9-10.58-4.56-2.19-12.93,8.99-4.88,10.64Z"/>
    </g>
    <path class="cls-9" d="m181.72,24.67c3.29,9.65,20.14,8.82,23.03,9.35l6.65,7.67c2.93,17.32,3.67,42.13,23.46,47.99.58-20.47,24.96-22.89,36.83-34.63-1.26-11.58,8.31-23.63,5.75-35.94,3.89-1.67,10.99-5.89,14.14-9.44-5.21-3.11-12.72-3.79-18.83-3.3l-8.94-6.05c-63.15-2.92-63.71,15.29-79.45,17.35l-2.63,7Z"/>
  </g>
  <path class="cls-7" d="m176.65,85.1c-7.02,0-12.71,5.69-12.71,12.71,0,1.64.31,3.2.88,4.64l11.83,20.15,11.83-20.15c.56-1.44.88-3,.88-4.64,0-7.02-5.69-12.71-12.71-12.71Zm0,21.44c-5.18,0-9.37-4.2-9.37-9.37s4.2-9.37,9.37-9.37,9.37,4.2,9.37,9.37-4.2,9.37-9.37,9.37Z"/>
  <path class="cls-7" d="m299.81,134.05c-7.02,0-12.71,5.69-12.71,12.71,0,1.64.31,3.2.88,4.64l11.83,20.15,11.83-20.15c.56-1.44.88-3,.88-4.64,0-7.02-5.69-12.71-12.71-12.71Zm0,21.44c-5.18,0-9.37-4.2-9.37-9.37s4.2-9.37,9.37-9.37,9.37,4.2,9.37,9.37-4.2,9.37-9.37,9.37Z"/>
  <path class="cls-7" d="m220.62,210.68c-7.02,0-12.71,5.69-12.71,12.71,0,1.64.31,3.2.88,4.64l11.83,20.15,11.83-20.15c.56-1.44.88-3,.88-4.64,0-7.02-5.69-12.71-12.71-12.71Zm0,21.44c-5.18,0-9.37-4.2-9.37-9.37s4.2-9.37,9.37-9.37,9.37,4.2,9.37,9.37-4.2,9.37-9.37,9.37Z"/>
  <g>
    <rect class="cls-3" x="216.13" y="140.6" width=".68" height="3.62"/>
    <rect class="cls-4" x="202.85" y="145.32" width="29.86" height="19.26"/>
    <rect class="cls-3" x="212" y="145.32" width=".77" height="19.26"/>
    <rect class="cls-3" x="221.58" y="145.32" width=".77" height="20.23"/>
    <rect class="cls-5" x="236.72" y="139.03" width="4.01" height="18.74"/>
    <rect class="cls-5" x="240.72" y="143.64" width="7.63" height="15.38"/>
    <rect class="cls-10" x="197.86" y="139.63" width="1.88" height="22.49"/>
    <path class="cls-3" d="m255.33,156.43s-3.75,5.3-7.89,9.18c-2.66,2.49-4.41,4.56-5.46,6.33-.58.99-.95,1.88-1.13,2.71h-46.15s-.76-1.34-1.73-2.71c-.68-.95-1.45-1.92-2.15-2.46-1.68-1.29-3.88-3.94-3.88-3.94l-1.03-6.39h42.01l1.55-2.72h25.86Z"/>
    <rect class="cls-10" x="197.86" y="139.63" width="20.76" height="1.94"/>
    <path class="cls-1" d="m241.99,171.94c-.58.99-.95,1.88-1.13,2.71h-46.15s-.76-1.34-1.73-2.71h49.02Z"/>
    <rect class="cls-3" x="240.34" y="143.64" width=".77" height="12.8"/>
    <rect class="cls-3" x="202.85" y="149.65" width="29.86" height=".77"/>
    <rect class="cls-3" x="203.23" y="154.56" width="29.47" height=".77"/>
    <rect class="cls-3" x="243.25" y="145.71" width="2.26" height="2.26"/>
    <rect class="cls-3" x="243.25" y="149.26" width="2.26" height="2.26"/>
    <rect class="cls-3" x="243.25" y="152.8" width="2.26" height="2.26"/>
  </g>
  <g>
    <path class="cls-1" d="m340.94,39.25c0,10.5-4.62,19.91-11.95,26.33-6.16,5.39-14.23,8.66-23.04,8.66-19.32,0-34.99-15.67-34.99-34.99,0-.52,0-1.05.04-1.56.73-16.66,13.09-30.27,29.16-32.95,1.89-.32,3.82-.48,5.8-.48,9.69,0,18.44,3.93,24.78,10.29,1.09,1.1,2.1,2.26,3.04,3.49,4.49,5.88,7.17,13.24,7.17,21.22Z"/>
    <path class="cls-7" d="m305.95,4.25v34.99l-34.95-1.56c.73-16.66,13.09-30.27,29.16-32.95,1.89-.32,3.82-.48,5.8-.48Z"/>
    <path class="cls-4" d="m340.94,39.25c0,10.5-4.62,19.91-11.95,26.33l-23.04-26.33,24.78-24.7c1.09,1.1,2.1,2.26,3.04,3.49,4.49,5.88,7.17,13.24,7.17,21.22Z"/>
    <path class="cls-10" d="m333.77,18.03l-27.82,21.22-5.8-34.51c1.89-.32,3.82-.48,5.8-.48,9.69,0,18.44,3.93,24.78,10.29,1.09,1.1,2.1,2.26,3.04,3.49Z"/>
  </g>
  <g>
    <path class="cls-10" d="m437.46,66.32c-2.28-1.37-4.37-2.6-7.11-4.17-.56-.32-5.79-2.77-7.71-1-1.26,1.17.78,3.38,2.02,4.57.93.89,2.04,1.57,3.18,2.18-1.01-.19-2.17.25-2.6,1.2-.41.91-.05,2.02.68,2.67-1.07-.14-2.24.31-2.78,1.25-.58,1.01-.33,2.36.45,3.21-.44-.04-.92.11-1.21.45-.59.67-.52,1.73-.07,2.51.45.77,1.19,1.32,1.92,1.83,2.97,2.08,6.06,3.98,9.25,5.71,1.02.55,2.18,1.1,3.31.83.76-.19,1.37-.72,1.96-1.23,3.93-3.44,7.85-6.88,11.78-10.33-3.95-3.62-8.48-6.91-13.07-9.67Z"/>
    <path class="cls-3" d="m608.59,337.12l6.18,24.08-36.01,11.51s-1.67-7.54,3.04-11.93,7.85-9.11,7.85-9.11l-3.74-15.7,20.81-6.36,1.88,7.51Z"/>
    <path class="cls-3" d="m549.76,347.59v23.24l-40.08,1.26s0-5.23,2.99-8.16c2.99-2.93,15.32-6.58,15.32-6.58l1.72-11.22,20.04,1.47Z"/>
    <path class="cls-12" d="m522.52,145.39s-1.69,18.84-3.19,92.38c-.58,28.26-1.08,110.77-1.08,110.77l38.13-.38s-.52-92.07,4.17-132.33c4.7-40.27,9.6-71.11,9.6-71.11l-47.62.67Z"/>
    <path class="cls-12" d="m582.12,151.39s11.83,70.51,14,85.75c2.17,15.24,14.09,97.55,16.25,103.04l-34.62,6.76s-17.02-68.15-25.25-128.46l-3.96-28.57-2.44-44.93,36.02,6.41Z"/>
    <path class="cls-6" d="m527.15,106.42c-.05.05-4.21,19.95-3.04,51.6l61.78-2.93c-3.73-45.82-5.68-57.92-27.2-71.82l-20.45,2.03-11.1,21.12Z"/>
    <path class="cls-10" d="m539.4,154.15s-8.9.42-11.93,0c-3.04-.42-3.98,2.41-3.35,3.87.63,1.47,4.63,2.2,7.55,2.3,2.92.1,9.51-.63,9.51-.63l-1.78-5.55Z"/>
    <path class="cls-3" d="m523.45,129l15.09,48.68c.8,2.59-1.08,5.24-3.79,5.34l-27.08.96c-1.85.07-3.51-1.11-4.07-2.87l-15.77-49.64c-.84-2.66,1.14-5.37,3.93-5.37h27.76c1.81,0,3.4,1.18,3.94,2.9Z"/>
    <path class="cls-6" d="m557.51,82.97s-19.26-3.61-29.73-2.15c-10.47,1.47-39.57,9.47-47.1,8.64-7.54-.84-27.01-16.54-29.52-18.42l-16.33,18.52s25.54,25.23,45.22,25.86c19.68.63,56.56-8.06,56.56-8.06l20.9-24.39Z"/>
    <path class="cls-10" d="m541,157.46c-2.23-1.14-4.98-.42-7.3,0-3.99.71-8,1.32-12.01,1.93-.92.14-1.88.3-2.66.81-.78.52-1.33,1.5-1.05,2.39.35,1.11,1.7,1.49,2.85,1.64,3.1.39,6.27.25,9.33-.41-1.49.28-3.06.85-6.11,1.36-2.28.38-6.27.34-6.41,2.64-.22,3.41,6.21,3.01,9.62,2.91-1.64.28-3.29.55-4.93.83-.65.11-1.38.28-1.68.86-.57,1.1,0,2.54,1.22,2.81,1.98.45,4.95.24,6.98.27-.47.03-.95.06-1.42.1-.72.05-2.83.12-3.34.64-.86.88-.07,2.35,1.02,2.9,1.1.55,3.56.31,4.79.33,7.31.13,11.69-1.88,17.53-2.82,2.02-.32-3.57-17.74-6.42-19.21Z"/>
    <path class="cls-6" d="m554.55,80.83s26.93,6.86,33.84,16.9c6.91,10.05,8.37,17.58,9.2,30.77.84,13.19-3.87,24.6-10.77,32.14s-32.45,14.24-43.33,18c0,0-3.94-20.73-6.87-24.7,0,0,24.46-5.44,34.3-15.28,4.19-4.19,5.02-15.28,3.35-22.82-1.67-7.54-25.91-27.08-25.91-27.08l6.2-7.93Z"/>
    <path class="cls-3" d="m536.68,154.32l-.14-.76c15.78-2.95,26.67-8.91,33.29-18.22,5.84-8.2,4.07-19.33,4.05-19.44l.76-.13c.02.11,1.84,11.56-4.18,20.02-6.74,9.48-17.79,15.54-33.78,18.53Z"/>
    <rect class="cls-3" x="520.85" y="102.71" width="13.31" height=".77" transform="translate(321.43 599.51) rotate(-78.51)"/>
    <rect class="cls-3" x="525" y="169.73" width="7.8" height=".77" transform="translate(-21.67 95.64) rotate(-10.13)"/>
    <rect class="cls-3" x="525.06" y="175.13" width="9.01" height=".77" transform="translate(-7.93 26.03) rotate(-2.79)"/>
    <rect class="cls-3" x="527.39" y="163.66" width="2.78" height=".77" transform="translate(-19.44 86.76) rotate(-9.21)"/>
    <rect class="cls-3" x="551.81" y="196.54" width=".77" height="58.99" transform="translate(-34.74 118.73) rotate(-11.9)"/>
    <polygon class="cls-3" points="547.59 94.91 545.82 86.03 537.97 89.43 539.76 80.75 540.51 80.9 539.02 88.13 546.4 84.94 548.11 93.57 562.57 83 563.02 83.62 547.59 94.91"/>
    <path class="cls-3" d="m536.12,146.01l-.77-.06c2.28-31.29,10.3-60.29,10.38-60.58l.74.21c-.08.29-8.08,29.22-10.36,60.43Z"/>
    <path class="cls-3" d="m436.09,77.82c-.19-.08-4.74-2.09-6.54-3.45-2.03-1.53-1.93-2.9-1.08-4.75.89-1.93,9.19.16,11.71.84l-.2.75c-4.89-1.33-10.39-2.15-10.8-1.26-.75,1.62-.8,2.56.84,3.81,1.73,1.31,6.34,3.34,6.39,3.36l-.31.71Z"/>
    <path class="cls-3" d="m427.24,82.85c-.58,0-1.14-.21-1.54-.61l.55-.54c.47.47,1.34.51,1.94.08.57-.41.9-1.2.84-2-.07-.91-.57-1.69-.97-2.18l-2.19-2.62,2.72,2.07c.58.44,1.15.71,1.69.78.61.09,1.22-.09,1.59-.46.38-.39.47-1.02.2-1.42l.64-.43c.47.71.35,1.74-.29,2.39-.54.55-1.38.81-2.25.69-.23-.03-.46-.09-.7-.17.19.43.3.87.33,1.3.08,1.08-.36,2.11-1.16,2.69-.42.3-.92.45-1.41.45Z"/>
    <rect class="cls-3" x="549.54" y="150.97" width=".77" height="23.55" transform="translate(-23.47 151.64) rotate(-15.38)"/>
    <rect class="cls-3" x="438.56" y="86.43" width="24.03" height=".77" transform="translate(117.09 402.01) rotate(-54.29)"/>
    <g>
      <path class="cls-3" d="m561.32,62.03c.78,2.31.88,4.81.5,7.22-.32,2.09-1.02,4.16-2.3,5.85-1.28,1.69-3.19,2.95-5.3,3.17-.76.08-1.61-.03-2.1-.61-.34-.4-.43-.95-.51-1.48-.21-1.37-.41-2.75-.62-4.12-.46-3.08-.92-6.25-.14-9.27.65-2.55,2.37-4.96,4.88-5.93,2.77-1.07,4.83,2.94,5.58,5.17Z"/>
      <path class="cls-10" d="m557.12,72.8c-.68-.79-1.83-.74-2.9-.49.58-1.89,1.03-3.83,1.3-5.65.55-5.76-5.3-10.31-11.32-10.32-4.81.56-8.02,8.53-8.44,12.73-1.05,10.76,5.01,17.62,14.29,11.65.9-1.03,1.72-2.4,2.45-3.93.06,0,.13,0,.19,0,1.26-.02,2.59-.06,3.64-.75,1.05-.69,1.61-2.29.78-3.24Z"/>
      <path class="cls-10" d="m552.82,73.26l2.74,8.87s-5.79,3.14-9.96,3.14l-1.98-4.83,9.19-7.19Z"/>
      <path class="cls-3" d="m544.92,54.48h-.11c-1.63,0-3.19.23-4.63,1.01-1,.54-2.05,1.13-2.58,2.13-.87,1.64.09,3.78,1.64,4.78,1.56,1,3.52,1.11,5.37,1.02s3.72-.35,5.54.02c-.33,1.08.2,2.24.87,3.15.68.91,1.52,1.71,1.98,2.74.46,1.03.4,2.43-.52,3.09,2.4-.17,4.01-2.49,5.03-4.67.9-1.91,1.64-3.99,1.47-6.09-.25-3.09-2.54-5.79-5.38-7.04-2.84-1.24-5.59-.15-8.69-.15Z"/>
    </g>
  </g>
  <g>
    <polygon class="cls-10" points="132.06 61.74 132.06 44.14 114.07 44.14 114.07 61.74 104.66 61.74 104.66 79.73 122.44 79.73 122.65 79.73 140.44 79.73 140.44 61.74 132.06 61.74"/>
    <rect class="cls-3" x="114.07" y="61.35" width="17.99" height=".77"/>
    <rect class="cls-3" x="122.68" y="61.74" width=".77" height="17.99"/>
  </g>
  <g>
    <polygon class="cls-10" points="339.03 203.23 339.03 185.63 321.04 185.63 321.04 203.23 311.63 203.23 311.63 221.22 329.41 221.22 329.62 221.22 347.4 221.22 347.4 203.23 339.03 203.23"/>
    <rect class="cls-3" x="321.04" y="202.84" width="17.99" height=".77"/>
    <rect class="cls-3" x="329.65" y="203.23" width=".77" height="17.99"/>
  </g>
  <g>
    <polygon class="cls-10" points="195.31 258.74 195.31 241.15 177.31 241.15 177.31 258.74 167.9 258.74 167.9 276.74 185.68 276.74 185.89 276.74 203.68 276.74 203.68 258.74 195.31 258.74"/>
    <rect class="cls-3" x="177.31" y="258.36" width="17.99" height=".77"/>
    <rect class="cls-3" x="185.92" y="258.74" width=".77" height="17.99"/>
  </g>
  <path class="cls-7" d="m338.89,241.13c-7.02,0-12.71,5.69-12.71,12.71,0,1.64.31,3.2.88,4.64l11.83,20.15,11.83-20.15c.56-1.44.88-3,.88-4.64,0-7.02-5.69-12.71-12.71-12.71Zm0,21.44c-5.18,0-9.37-4.2-9.37-9.37s4.2-9.37,9.37-9.37,9.37,4.2,9.37,9.37-4.2,9.37-9.37,9.37Z"/>
  <path class="cls-7" d="m351.6,83.65c-7.02,0-12.71,5.69-12.71,12.71,0,1.64.31,3.2.88,4.64l11.83,20.15,11.83-20.15c.56-1.44.88-3,.88-4.64,0-7.02-5.69-12.71-12.71-12.71Zm0,21.44c-5.18,0-9.37-4.2-9.37-9.37s4.2-9.37,9.37-9.37,9.37,4.2,9.37,9.37-4.2,9.37-9.37,9.37Z"/>
  <path class="cls-7" d="m486.21,36.55c-7.02,0-12.71,5.69-12.71,12.71,0,1.64.31,3.2.88,4.64l11.83,20.15,11.83-20.15c.56-1.44.88-3,.88-4.64,0-7.02-5.69-12.71-12.71-12.71Zm0,21.44c-5.18,0-9.37-4.2-9.37-9.37s4.2-9.37,9.37-9.37,9.37,4.2,9.37,9.37-4.2,9.37-9.37,9.37Z"/>
  <g>
    <rect class="cls-3" x="281.49" y="279.53" width=".68" height="3.62" transform="translate(563.65 562.68) rotate(180)"/>
    <rect class="cls-4" x="265.59" y="284.25" width="29.86" height="19.26" transform="translate(561.03 587.75) rotate(180)"/>
    <rect class="cls-3" x="285.52" y="284.25" width=".77" height="19.26"/>
    <rect class="cls-3" x="275.94" y="284.25" width=".77" height="20.23"/>
    <rect class="cls-5" x="257.57" y="277.96" width="4.01" height="18.74" transform="translate(519.15 574.65) rotate(180)"/>
    <rect class="cls-5" x="249.95" y="282.57" width="7.63" height="15.38" transform="translate(507.52 580.51) rotate(180)"/>
    <rect class="cls-10" x="298.55" y="278.56" width="1.88" height="22.49" transform="translate(598.98 579.61) rotate(180)"/>
    <path class="cls-3" d="m242.96,295.36s3.75,5.3,7.89,9.18c2.66,2.49,4.41,4.56,5.46,6.33.58.99.95,1.88,1.13,2.71h46.15s.76-1.34,1.73-2.71c.68-.95,1.45-1.92,2.15-2.46,1.68-1.29,3.88-3.94,3.88-3.94l1.03-6.39h-42.01l-1.55-2.72h-25.86Z"/>
    <rect class="cls-10" x="279.68" y="278.56" width="20.76" height="1.94" transform="translate(580.11 559.06) rotate(180)"/>
    <path class="cls-1" d="m256.31,310.87c.58.99.95,1.88,1.13,2.71h46.15s.76-1.34,1.73-2.71h-49.02Z"/>
    <rect class="cls-3" x="257.19" y="282.57" width=".77" height="12.8"/>
    <rect class="cls-3" x="265.59" y="288.58" width="29.86" height=".77"/>
    <rect class="cls-3" x="265.59" y="293.49" width="29.47" height=".77"/>
    <rect class="cls-3" x="252.78" y="284.64" width="2.26" height="2.26" transform="translate(507.82 571.55) rotate(180)"/>
    <rect class="cls-3" x="252.78" y="288.19" width="2.26" height="2.26" transform="translate(507.82 578.64) rotate(180)"/>
    <rect class="cls-3" x="252.78" y="291.73" width="2.26" height="2.26" transform="translate(507.82 585.73) rotate(180)"/>
  </g>
  <g>
    <rect class="cls-3" x="448.68" y="246.61" width=".68" height="3.62"/>
    <rect class="cls-4" x="435.4" y="251.33" width="29.86" height="19.26"/>
    <rect class="cls-3" x="444.56" y="251.33" width=".77" height="19.26"/>
    <rect class="cls-3" x="454.13" y="251.33" width=".77" height="20.23"/>
    <rect class="cls-5" x="469.27" y="245.04" width="4.01" height="18.74"/>
    <rect class="cls-5" x="473.27" y="249.65" width="7.63" height="15.38"/>
    <rect class="cls-10" x="430.41" y="245.64" width="1.88" height="22.49"/>
    <path class="cls-3" d="m487.88,262.44s-3.75,5.3-7.89,9.18c-2.66,2.49-4.41,4.56-5.46,6.33-.58.99-.95,1.88-1.13,2.71h-46.15s-.76-1.34-1.73-2.71c-.68-.95-1.45-1.92-2.15-2.46-1.68-1.29-3.88-3.94-3.88-3.94l-1.03-6.39h42.01l1.55-2.72h25.86Z"/>
    <rect class="cls-10" x="430.41" y="245.64" width="20.76" height="1.94"/>
    <path class="cls-1" d="m474.54,277.96c-.58.99-.95,1.88-1.13,2.71h-46.15s-.76-1.34-1.73-2.71h49.02Z"/>
    <rect class="cls-3" x="472.89" y="249.65" width=".77" height="12.8"/>
    <rect class="cls-3" x="435.4" y="255.66" width="29.86" height=".77"/>
    <rect class="cls-3" x="435.79" y="260.57" width="29.47" height=".77"/>
    <rect class="cls-3" x="475.8" y="251.73" width="2.26" height="2.26"/>
    <rect class="cls-3" x="475.8" y="255.27" width="2.26" height="2.26"/>
    <rect class="cls-3" x="475.8" y="258.81" width="2.26" height="2.26"/>
  </g>
  <g>
    <polygon class="cls-10" points="470.76 183.78 470.76 166.18 452.77 166.18 452.77 183.78 443.36 183.78 443.36 201.77 461.14 201.77 461.35 201.77 479.13 201.77 479.13 183.78 470.76 183.78"/>
    <rect class="cls-3" x="452.77" y="183.39" width="17.99" height=".77"/>
    <rect class="cls-3" x="461.38" y="183.78" width=".77" height="17.99"/>
  </g>
  <g>
    <path class="cls-4" d="m167.96,190.08c1.19-.08,2.4-1.11,2.22-2.31-.08-.53-1.08-2.5-1.41-2.92-1.75-2.21-7.83-5.52-9.07-7.1,2.67.17,3.73.23,6.4.4.42.03.86.05,1.26-.1.84-.32,1.23-1.39,1.04-2.28-.19-.89-.82-1.62-1.51-2.21-3.29-2.78-8.74-3.06-13.17-4.89-4.4-1.82-6.72-2.57-10.69-5.11-.1-.06-.21-.13-.32-.12-.14.01-.25.13-.34.24-2.91,3.47-5.82,6.93-8.73,10.4-.76.9-1.54,1.83-2.58,2.38,2.94,3.44,22.79,20.33,26.39,21.46,1.76.56,3.71.5,5.44-.14.79-.29,1.64-.88,1.62-1.73-.01-.53-.37-.98-.76-1.34-.36-.34-.75-.63-1.16-.88.19.07.38.14.56.21,1.02.37,2.09.72,3.17.6,1.08-.12,2.16-.86,2.34-1.95.18-1.09-.54-1.97-1.47-2.65.25.04.51.06.77.04Z"/>
    <path class="cls-3" d="m42.26,338.66l-.78,12.61s8.07,2.88,11.37,5.09c3.29,2.21,5.39,7.75,5.51,8.85H13.78l4.28-28.55,24.2,1.99Z"/>
    <path class="cls-3" d="m80.98,335.31v24.96h41.85s-1.2-4.67-3.41-6.9c-2.2-2.23-15.63-7.1-15.63-7.1l-1.3-13.6-21.51,2.64Z"/>
    <path class="cls-1" d="m98.85,156.45s6.51,44.36,8.73,93.95c2.22,49.6,1.88,85.22,1.88,85.22l-31.72,2.44-9.01-129.15-21.69,130.55H13.59l22.07-183.01h63.19Z"/>
    <path class="cls-4" d="m57.99,218.52c.29,1.76-.26,3.61-1.27,5.02-1.01,1.41-2.43,2.41-3.95,3.1-.62.28-1.42.48-1.9-.03-.24-.25-.34-.61-.42-.96-.83-3.29-1.53-6.63-1.9-10.02-.21-1.9-.32-3.86.22-5.68.47-1.58,2.85-5.09,4.78-3.72,1.18.84,4.13,10.34,4.45,12.28Z"/>
    <g>
      <path class="cls-11" d="m42.2,216.43c-9.2,0-16.67,7.56-16.67,16.88,0,.26,0,.53.02.79h5.88c-.02-.26-.03-.52-.03-.79,0-6.05,4.84-10.95,10.81-10.95s10.81,4.9,10.81,10.95c0,.27,0,.53-.03.79h5.88c.01-.26.02-.53.02-.79,0-9.32-7.46-16.88-16.67-16.88Z"/>
      <rect class="cls-11" x="5.77" y="234.1" width="76.56" height="56.93" rx="6.47" ry="6.47"/>
      <g>
        <path class="cls-3" d="m71.61,272.97H16.09c-2.64,0-4.78-1.97-4.78-4.4v-34.46h.77v34.46c0,2,1.8,3.63,4.01,3.63h55.52c2.21,0,4.01-1.63,4.01-3.63v-34.46h.77v34.46c0,2.43-2.15,4.4-4.78,4.4Z"/>
        <rect class="cls-3" x="38.27" y="272.69" width=".77" height="3.65"/>
        <path class="cls-3" d="m43.85,285.11c-2.91,0-5.3-2.21-5.56-5.14l.77-.07c.22,2.53,2.28,4.43,4.79,4.43s4.62-1.99,4.79-4.54l.77.05c-.2,2.95-2.64,5.26-5.56,5.26Z"/>
        <rect class="cls-3" x="48.65" y="272.69" width=".77" height="3.73"/>
        <path class="cls-3" d="m53.03,280.21h-18.62v-4.27h18.62v4.27Zm-17.85-.77h17.07v-2.72h-17.07v2.72Z"/>
      </g>
    </g>
    <path class="cls-4" d="m51.4,222.6c.2,1.91.64,5.01-.34,6.52-.72,1.11-3.25,2.22-4.35,1.75-1.1-.47-1.4-.61-2.02.41-.12.2-.3.34-.48.46-1.23.8-2.8.75-4-.12s-.84-.7-1.78.6c-1.46,2.03-5.38,1.05-6.85-1.36-.74-1.21-.84-2.81-.89-4.32-.2-5.99-1.68-13.61-1-19.54,5.55-1.46,12.88-.99,18.52-1.84,3.47-.52,1.88,3.47,1.77,6.13-.17,4.3.98,7.04,1.44,11.3Z"/>
    <path class="cls-8" d="m60.68,86.6s-16.74-.35-27.43,11.87c-10.69,12.22-14.97,40.51-14.9,58.68.07,18.16,8.54,56.5,8.54,56.5l28.53-6.02s-9.41-49.44-7.34-64.46c2.07-15.02,7.95-25.85,7.95-25.85l4.65-30.73Z"/>
    <path class="cls-8" d="m66.35,86.6s11.04,0,16.9,2.45,11.06,3.84,22.24,19.21c11.19,15.37,13.1,26.19,20.86,34.05,7.76,7.86,28.02,25.34,28.02,25.34l-19.65,18.54s-13.12-10.52-23.71-21.01c-12.16-12.05-23.28-28.79-23.28-28.79l-21.38-49.8Z"/>
    <path class="cls-8" d="m92.56,110c3.5,12.86,6.29,46.45,6.29,46.45l-56.64,5.94,9.83-70.72,8.64-5.07h5.67s23.89,14.87,26.21,23.4Z"/>
    <g>
      <path class="cls-3" d="m57.64,61.03c-3.89,2.92-6.73,8.25-5.17,13.04.91,2.8,3.11,4.86,5.22,6.8.49.45.98.89,1.46,1.34.11.1.22.2.36.23.19.04.37-.06.53-.16,2.31-1.43,3.65-4.1,5.6-6.03,3.55-3.52,11.56-7.56,8.46-14.39-3.05-6.73-11.69-4.41-16.47-.82Z"/>
      <path class="cls-4" d="m75.15,64.42c2.17,2.53,2.47,7.09,2.59,10.25.09,2.42-.41,4.93-1.91,6.97-1.5,2.04-3.67,3.53-6.44,3.48-2.94-.06-5.56-1.81-7.12-3.99-1.56-2.18-2.22-4.75-2.77-7.27-.55-2.52-1-5.17-.14-7.63,2.53-7.21,11.74-6.52,15.78-1.82Z"/>
      <path class="cls-4" d="m69.92,81.18v7.34s-5.5,1.36-12.86-1.37l2.1-15.01,10.75,9.03Z"/>
      <path class="cls-4" d="m60.65,74.72l-.25-.15c-.3-1.03-1.51-1.65-2.54-1.39-1.03.27-1.78,1.31-1.83,2.38-.05,1.08.52,2.13,1.39,2.76s1.97.85,3.03.74c.2-1.44.27-2.9.2-4.35Z"/>
      <path class="cls-3" d="m61.78,68.21c2.55,1.55,5.8.88,8.65.03.98-.29,1.97-.61,2.78-1.23s1.44-1.59,1.38-2.62c.63.6,1.16,1.3,1.55,2.08.11-.51-.08-1.04-.31-1.51-1.55-3.17-4.94-5.28-8.43-5.42-3.49-.14-6.96,1.6-9.12,4.39-1.49,1.92-2.37,4.67-1.2,6.81.8,1.46,2.27,2.62,3.28,3.92,1.05-1.51,1.09-4.58,1.43-6.46Z"/>
    </g>
    <path class="cls-3" d="m47.99,161.79c-.19-1.33-4.49-32.74.02-43.9l.72.29c-4.44,10.96-.02,43.18.02,43.5l-.77.11Z"/>
    <rect class="cls-3" x="95.99" y="115.83" width=".77" height="34.47" transform="translate(-18.13 15.24) rotate(-8.27)"/>
    <polygon class="cls-3" points="58.85 101.26 51.35 88.89 52.01 88.49 58.91 99.87 66.2 89.95 76.81 95.14 72.4 87.1 73.07 86.73 78.67 96.91 66.44 90.93 58.85 101.26"/>
    <path class="cls-3" d="m76.68,158.77c-.02-.25-2.35-24.92-3.64-33.02-3.46-21.88-7.05-35.08-7.09-35.21l.75-.2c.04.13,3.64,13.37,7.11,35.29,1.29,8.13,3.62,32.82,3.64,33.07l-.77.07Z"/>
    <rect class="cls-3" x="25.23" y="200.1" width="28.31" height=".77" transform="translate(-40.83 12.57) rotate(-12)"/>
    <rect class="cls-3" x="122.73" y="169.53" width="27.22" height=".77" transform="translate(-79.97 144.08) rotate(-44.44)"/>
    <rect class="cls-3" x="60.27" y="198.19" width="21.1" height=".77" transform="translate(-137.82 228.84) rotate(-78.62)"/>
    <rect class="cls-3" x="94.66" y="165.17" width=".77" height="19.28" transform="translate(-96.99 122.71) rotate(-46.29)"/>
    <rect class="cls-3" x="48.43" y="174.57" width="16.48" height=".77" transform="translate(-108.59 94.28) rotate(-46.03)"/>
    <path class="cls-3" d="m77.74,75.83s1.74,5.68.17,10.16c-.8,2.29-8.4,3.83-12.08,1.49-3.68-2.34-6.61-16.63-6.61-16.63,0,0,4.49,7.69,5.43,7.62,3.99-.29,6.12-2.61,8.76-2.82,2.64-.21,2.5,0,3.48.19.27.05.84,0,.84,0Z"/>
    <path class="cls-4" d="m75.32,79c-.03-.12-3.37.47-3.37.47,0,0,.87,1.08,1.87,1.05,1.01-.03,1.49-1.51,1.49-1.51Z"/>
    <rect class="cls-3" x="157.77" y="185.79" width=".77" height="10.5" transform="translate(-87.82 222.75) rotate(-57.73)"/>
    <rect class="cls-3" x="161.66" y="181.49" width=".77" height="10.8" transform="translate(-81.18 231.91) rotate(-59.56)"/>
  </g>
  <g>
    <path class="cls-2" d="m388.45,142.51c2.01-3.11,9.27-7.71,9.27-7.71l.76-25.98,7.48-3.34,6.11,21.25c7.38-3.28,14.05-5.03,14.05-5.03,0,0,6.28-1.26,6.97-.39.78.99-4.13,5.62-4.13,5.62,0,0-5.12,4.64-11.89,9.02l14.47,16.72-6.88,4.45-22.18-13.55s-7.83,3.45-11.54,3.54c-2.94.07-4.57-1.4-2.5-4.61Z"/>
    <polygon class="cls-2" points="426.03 123.65 427.71 113.96 431.45 111.47 433.1 121.32 426.03 123.65"/>
    <polygon class="cls-2" points="427.26 125.92 436.3 129.81 440.42 128.03 433.07 121.28 427.26 125.92"/>
    <rect class="cls-2" x="408.32" y="146.56" width="4.15" height="4.15" transform="translate(-21.24 213.46) rotate(-28.45)"/>
    <rect class="cls-2" x="414.01" y="150.32" width="4.15" height="4.15" transform="translate(-22.35 216.63) rotate(-28.45)"/>
    <rect class="cls-2" x="395.69" y="116.51" width="4.15" height="4.15" transform="translate(-8.45 203.82) rotate(-28.45)"/>
    <rect class="cls-2" x="395.27" y="123.49" width="4.15" height="4.15" transform="translate(-11.83 204.46) rotate(-28.45)"/>
    <path class="cls-3" d="m397.94,135.13l-.43-.64c.09-.06,8.73-5.79,14.42-8.1l.29.72c-5.61,2.28-14.2,7.97-14.28,8.03Z"/>
    <path class="cls-3" d="m402.65,143.94l-.32-.7c.11-.05,10.68-4.95,14.54-7.59l.44.64c-3.91,2.68-14.21,7.45-14.65,7.65Z"/>
    <rect class="cls-3" x="413.11" y="144.52" width=".77" height="11.69" transform="translate(67.47 422.13) rotate(-58.13)"/>
    <rect class="cls-3" x="392.28" y="121.39" width="11.65" height=".77" transform="translate(264.7 516.13) rotate(-88.32)"/>
    <path class="cls-3" d="m390.07,141.6s.23,2.41,2.44,4.5l1.18-.88s-1.55-1.9-2.25-4.15l-1.37.54Z"/>
  </g>
</svg>